<svg width="300" height="300" viewBox="0 0 300 300" fill="none" xmlns="http://www.w3.org/2000/svg">
<path d="M35.4 82.2C34.5333 82.2 33.7833 81.8833 33.15 81.25C32.5167 80.6167 32.2 79.8667 32.2 79V34.2C32.2 33.3333 32.5167 32.5833 33.15 31.95C33.7833 31.3167 34.5333 31 35.4 31C36.2667 31 37.0167 31.3167 37.65 31.95L60.05 54.35C60.6833 54.9833 61 55.7333 61 56.6C61 57.4667 60.6833 58.2167 60.05 58.85L37.65 81.25C37.0167 81.8833 36.2667 82.2 35.4 82.2Z" fill="#1A1A1A"/>
<path d="M132.323 67.3214C132.323 70.9643 131.138 74.1012 128.769 76.7321C126.4 79.3631 123.323 80.9881 119.537 81.6071V87.8571C119.537 88.1905 119.43 88.4643 119.215 88.6786C119.001 88.8929 118.727 89 118.394 89H113.573C113.263 89 112.995 88.8869 112.769 88.6607C112.543 88.4345 112.43 88.1667 112.43 87.8571V81.6071C110.858 81.3929 109.34 81.0238 107.876 80.5C106.412 79.9762 105.203 79.4464 104.251 78.9107C103.299 78.375 102.418 77.8036 101.608 77.1964C100.799 76.5893 100.245 76.1429 99.9475 75.8571C99.6499 75.5714 99.4416 75.3571 99.3225 75.2143C98.9178 74.7143 98.894 74.2262 99.2511 73.75L102.93 68.9286C103.096 68.6905 103.37 68.5476 103.751 68.5C104.108 68.4524 104.394 68.5595 104.608 68.8214L104.68 68.8929C107.37 71.25 110.263 72.7381 113.358 73.3571C114.239 73.5476 115.12 73.6429 116.001 73.6429C117.93 73.6429 119.626 73.131 121.09 72.1071C122.555 71.0833 123.287 69.631 123.287 67.75C123.287 67.0833 123.108 66.4524 122.751 65.8571C122.394 65.2619 121.995 64.7619 121.555 64.3571C121.114 63.9524 120.418 63.506 119.465 63.0179C118.513 62.5298 117.727 62.1488 117.108 61.875C116.489 61.6012 115.537 61.2143 114.251 60.7143C113.323 60.3333 112.59 60.0357 112.055 59.8214C111.519 59.6071 110.787 59.2917 109.858 58.875C108.93 58.4583 108.186 58.0893 107.626 57.7679C107.067 57.4464 106.394 57.0238 105.608 56.5C104.823 55.9762 104.186 55.4702 103.698 54.9821C103.209 54.494 102.692 53.9107 102.144 53.2321C101.596 52.5536 101.174 51.8631 100.876 51.1607C100.578 50.4583 100.328 49.6667 100.126 48.7857C99.9237 47.9048 99.8225 46.9762 99.8225 46C99.8225 42.7143 100.989 39.8333 103.323 37.3571C105.656 34.881 108.692 33.2857 112.43 32.5714V26.1429C112.43 25.8333 112.543 25.5655 112.769 25.3393C112.995 25.1131 113.263 25 113.573 25H118.394C118.727 25 119.001 25.1071 119.215 25.3214C119.43 25.5357 119.537 25.8095 119.537 26.1429V32.4286C120.894 32.5714 122.209 32.8452 123.483 33.25C124.757 33.6548 125.793 34.0536 126.59 34.4464C127.388 34.8393 128.144 35.2857 128.858 35.7857C129.573 36.2857 130.037 36.631 130.251 36.8214C130.465 37.0119 130.644 37.1786 130.787 37.3214C131.192 37.75 131.251 38.2024 130.965 38.6786L128.073 43.8929C127.882 44.25 127.608 44.4405 127.251 44.4643C126.918 44.5357 126.596 44.4524 126.287 44.2143C126.215 44.1429 126.043 44 125.769 43.7857C125.495 43.5714 125.031 43.256 124.376 42.8393C123.721 42.4226 123.025 42.0417 122.287 41.6964C121.549 41.3512 120.662 41.0417 119.626 40.7679C118.59 40.494 117.573 40.3571 116.573 40.3571C114.311 40.3571 112.465 40.869 111.037 41.8929C109.608 42.9167 108.894 44.2381 108.894 45.8571C108.894 46.4762 108.995 47.0476 109.198 47.5714C109.4 48.0952 109.751 48.5893 110.251 49.0536C110.751 49.5179 111.221 49.9107 111.662 50.2321C112.102 50.5536 112.769 50.9226 113.662 51.3393C114.555 51.756 115.275 52.0774 115.823 52.3036C116.37 52.5298 117.203 52.8571 118.323 53.2857C119.584 53.7619 120.549 54.1369 121.215 54.4107C121.882 54.6845 122.787 55.1012 123.93 55.6607C125.073 56.2202 125.971 56.7262 126.626 57.1786C127.281 57.631 128.019 58.2262 128.84 58.9643C129.662 59.7024 130.293 60.4583 130.733 61.2321C131.174 62.006 131.549 62.9167 131.858 63.9643C132.168 65.0119 132.323 66.131 132.323 67.3214Z" fill="#1A1A1A"/>
<path d="M229.323 67.3214C229.323 70.9643 228.138 74.1012 225.769 76.7321C223.4 79.3631 220.323 80.9881 216.537 81.6071V87.8571C216.537 88.1905 216.43 88.4643 216.215 88.6786C216.001 88.8929 215.727 89 215.394 89H210.573C210.263 89 209.995 88.8869 209.769 88.6607C209.543 88.4345 209.43 88.1667 209.43 87.8571V81.6071C207.858 81.3929 206.34 81.0238 204.876 80.5C203.412 79.9762 202.203 79.4464 201.251 78.9107C200.299 78.375 199.418 77.8036 198.608 77.1964C197.799 76.5893 197.245 76.1429 196.948 75.8571C196.65 75.5714 196.442 75.3571 196.323 75.2143C195.918 74.7143 195.894 74.2262 196.251 73.75L199.93 68.9286C200.096 68.6905 200.37 68.5476 200.751 68.5C201.108 68.4524 201.394 68.5595 201.608 68.8214L201.68 68.8929C204.37 71.25 207.263 72.7381 210.358 73.3571C211.239 73.5476 212.12 73.6429 213.001 73.6429C214.93 73.6429 216.626 73.131 218.09 72.1071C219.555 71.0833 220.287 69.631 220.287 67.75C220.287 67.0833 220.108 66.4524 219.751 65.8571C219.394 65.2619 218.995 64.7619 218.555 64.3571C218.114 63.9524 217.418 63.506 216.465 63.0179C215.513 62.5298 214.727 62.1488 214.108 61.875C213.489 61.6012 212.537 61.2143 211.251 60.7143C210.323 60.3333 209.59 60.0357 209.055 59.8214C208.519 59.6071 207.787 59.2917 206.858 58.875C205.93 58.4583 205.186 58.0893 204.626 57.7679C204.067 57.4464 203.394 57.0238 202.608 56.5C201.823 55.9762 201.186 55.4702 200.698 54.9821C200.209 54.494 199.692 53.9107 199.144 53.2321C198.596 52.5536 198.174 51.8631 197.876 51.1607C197.578 50.4583 197.328 49.6667 197.126 48.7857C196.924 47.9048 196.823 46.9762 196.823 46C196.823 42.7143 197.989 39.8333 200.323 37.3571C202.656 34.881 205.692 33.2857 209.43 32.5714V26.1429C209.43 25.8333 209.543 25.5655 209.769 25.3393C209.995 25.1131 210.263 25 210.573 25H215.394C215.727 25 216.001 25.1071 216.215 25.3214C216.43 25.5357 216.537 25.8095 216.537 26.1429V32.4286C217.894 32.5714 219.209 32.8452 220.483 33.25C221.757 33.6548 222.793 34.0536 223.59 34.4464C224.388 34.8393 225.144 35.2857 225.858 35.7857C226.573 36.2857 227.037 36.631 227.251 36.8214C227.465 37.0119 227.644 37.1786 227.787 37.3214C228.192 37.75 228.251 38.2024 227.965 38.6786L225.073 43.8929C224.882 44.25 224.608 44.4405 224.251 44.4643C223.918 44.5357 223.596 44.4524 223.287 44.2143C223.215 44.1429 223.043 44 222.769 43.7857C222.495 43.5714 222.031 43.256 221.376 42.8393C220.721 42.4226 220.025 42.0417 219.287 41.6964C218.549 41.3512 217.662 41.0417 216.626 40.7679C215.59 40.494 214.573 40.3571 213.573 40.3571C211.311 40.3571 209.465 40.869 208.037 41.8929C206.608 42.9167 205.894 44.2381 205.894 45.8571C205.894 46.4762 205.995 47.0476 206.198 47.5714C206.4 48.0952 206.751 48.5893 207.251 49.0536C207.751 49.5179 208.221 49.9107 208.662 50.2321C209.102 50.5536 209.769 50.9226 210.662 51.3393C211.555 51.756 212.275 52.0774 212.823 52.3036C213.37 52.5298 214.203 52.8571 215.323 53.2857C216.584 53.7619 217.549 54.1369 218.215 54.4107C218.882 54.6845 219.787 55.1012 220.93 55.6607C222.073 56.2202 222.971 56.7262 223.626 57.1786C224.281 57.631 225.019 58.2262 225.84 58.9643C226.662 59.7024 227.293 60.4583 227.733 61.2321C228.174 62.006 228.549 62.9167 228.858 63.9643C229.168 65.0119 229.323 66.131 229.323 67.3214Z" fill="#1A1A1A"/>
<path d="M183.323 67.3214C183.323 70.9643 182.138 74.1012 179.769 76.7321C177.4 79.3631 174.323 80.9881 170.537 81.6071V87.8571C170.537 88.1905 170.43 88.4643 170.215 88.6786C170.001 88.8929 169.727 89 169.394 89H164.573C164.263 89 163.995 88.8869 163.769 88.6607C163.543 88.4345 163.43 88.1667 163.43 87.8571V81.6071C161.858 81.3929 160.34 81.0238 158.876 80.5C157.412 79.9762 156.203 79.4464 155.251 78.9107C154.299 78.375 153.418 77.8036 152.608 77.1964C151.799 76.5893 151.245 76.1429 150.948 75.8571C150.65 75.5714 150.442 75.3571 150.323 75.2143C149.918 74.7143 149.894 74.2262 150.251 73.75L153.93 68.9286C154.096 68.6905 154.37 68.5476 154.751 68.5C155.108 68.4524 155.394 68.5595 155.608 68.8214L155.68 68.8929C158.37 71.25 161.263 72.7381 164.358 73.3571C165.239 73.5476 166.12 73.6429 167.001 73.6429C168.93 73.6429 170.626 73.131 172.09 72.1071C173.555 71.0833 174.287 69.631 174.287 67.75C174.287 67.0833 174.108 66.4524 173.751 65.8571C173.394 65.2619 172.995 64.7619 172.555 64.3571C172.114 63.9524 171.418 63.506 170.465 63.0179C169.513 62.5298 168.727 62.1488 168.108 61.875C167.489 61.6012 166.537 61.2143 165.251 60.7143C164.323 60.3333 163.59 60.0357 163.055 59.8214C162.519 59.6071 161.787 59.2917 160.858 58.875C159.93 58.4583 159.186 58.0893 158.626 57.7679C158.067 57.4464 157.394 57.0238 156.608 56.5C155.823 55.9762 155.186 55.4702 154.698 54.9821C154.209 54.494 153.692 53.9107 153.144 53.2321C152.596 52.5536 152.174 51.8631 151.876 51.1607C151.578 50.4583 151.328 49.6667 151.126 48.7857C150.924 47.9048 150.823 46.9762 150.823 46C150.823 42.7143 151.989 39.8333 154.323 37.3571C156.656 34.881 159.692 33.2857 163.43 32.5714V26.1429C163.43 25.8333 163.543 25.5655 163.769 25.3393C163.995 25.1131 164.263 25 164.573 25H169.394C169.727 25 170.001 25.1071 170.215 25.3214C170.43 25.5357 170.537 25.8095 170.537 26.1429V32.4286C171.894 32.5714 173.209 32.8452 174.483 33.25C175.757 33.6548 176.793 34.0536 177.59 34.4464C178.388 34.8393 179.144 35.2857 179.858 35.7857C180.573 36.2857 181.037 36.631 181.251 36.8214C181.465 37.0119 181.644 37.1786 181.787 37.3214C182.192 37.75 182.251 38.2024 181.965 38.6786L179.073 43.8929C178.882 44.25 178.608 44.4405 178.251 44.4643C177.918 44.5357 177.596 44.4524 177.287 44.2143C177.215 44.1429 177.043 44 176.769 43.7857C176.495 43.5714 176.031 43.256 175.376 42.8393C174.721 42.4226 174.025 42.0417 173.287 41.6964C172.549 41.3512 171.662 41.0417 170.626 40.7679C169.59 40.494 168.573 40.3571 167.573 40.3571C165.311 40.3571 163.465 40.869 162.037 41.8929C160.608 42.9167 159.894 44.2381 159.894 45.8571C159.894 46.4762 159.995 47.0476 160.198 47.5714C160.4 48.0952 160.751 48.5893 161.251 49.0536C161.751 49.5179 162.221 49.9107 162.662 50.2321C163.102 50.5536 163.769 50.9226 164.662 51.3393C165.555 51.756 166.275 52.0774 166.823 52.3036C167.37 52.5298 168.203 52.8571 169.323 53.2857C170.584 53.7619 171.549 54.1369 172.215 54.4107C172.882 54.6845 173.787 55.1012 174.93 55.6607C176.073 56.2202 176.971 56.7262 177.626 57.1786C178.281 57.631 179.019 58.2262 179.84 58.9643C180.662 59.7024 181.293 60.4583 181.733 61.2321C182.174 62.006 182.549 62.9167 182.858 63.9643C183.168 65.0119 183.323 66.131 183.323 67.3214Z" fill="#1A1A1A"/>
<rect x="1" y="1" width="298" height="298" stroke="black" stroke-width="2"/>
<line x1="24" y1="101" x2="279" y2="101" stroke="black" stroke-width="2"/>
<path d="M35.4 262.2C34.5333 262.2 33.7833 261.883 33.15 261.25C32.5167 260.617 32.2 259.867 32.2 259V214.2C32.2 213.333 32.5167 212.583 33.15 211.95C33.7833 211.317 34.5333 211 35.4 211C36.2667 211 37.0167 211.317 37.65 211.95L60.05 234.35C60.6833 234.983 61 235.733 61 236.6C61 237.467 60.6833 238.217 60.05 238.85L37.65 261.25C37.0167 261.883 36.2667 262.2 35.4 262.2Z" fill="#1A1A1A"/>
<path d="M132.323 247.321C132.323 250.964 131.138 254.101 128.769 256.732C126.4 259.363 123.323 260.988 119.537 261.607V267.857C119.537 268.19 119.43 268.464 119.215 268.679C119.001 268.893 118.727 269 118.394 269H113.573C113.263 269 112.995 268.887 112.769 268.661C112.543 268.435 112.43 268.167 112.43 267.857V261.607C110.858 261.393 109.34 261.024 107.876 260.5C106.412 259.976 105.203 259.446 104.251 258.911C103.299 258.375 102.418 257.804 101.608 257.196C100.799 256.589 100.245 256.143 99.9475 255.857C99.6499 255.571 99.4416 255.357 99.3225 255.214C98.9178 254.714 98.894 254.226 99.2511 253.75L102.93 248.929C103.096 248.69 103.37 248.548 103.751 248.5C104.108 248.452 104.394 248.56 104.608 248.821L104.68 248.893C107.37 251.25 110.263 252.738 113.358 253.357C114.239 253.548 115.12 253.643 116.001 253.643C117.93 253.643 119.626 253.131 121.09 252.107C122.555 251.083 123.287 249.631 123.287 247.75C123.287 247.083 123.108 246.452 122.751 245.857C122.394 245.262 121.995 244.762 121.555 244.357C121.114 243.952 120.418 243.506 119.465 243.018C118.513 242.53 117.727 242.149 117.108 241.875C116.489 241.601 115.537 241.214 114.251 240.714C113.323 240.333 112.59 240.036 112.055 239.821C111.519 239.607 110.787 239.292 109.858 238.875C108.93 238.458 108.186 238.089 107.626 237.768C107.067 237.446 106.394 237.024 105.608 236.5C104.823 235.976 104.186 235.47 103.698 234.982C103.209 234.494 102.692 233.911 102.144 233.232C101.596 232.554 101.174 231.863 100.876 231.161C100.578 230.458 100.328 229.667 100.126 228.786C99.9237 227.905 99.8225 226.976 99.8225 226C99.8225 222.714 100.989 219.833 103.323 217.357C105.656 214.881 108.692 213.286 112.43 212.571V206.143C112.43 205.833 112.543 205.565 112.769 205.339C112.995 205.113 113.263 205 113.573 205H118.394C118.727 205 119.001 205.107 119.215 205.321C119.43 205.536 119.537 205.81 119.537 206.143V212.429C120.894 212.571 122.209 212.845 123.483 213.25C124.757 213.655 125.793 214.054 126.59 214.446C127.388 214.839 128.144 215.286 128.858 215.786C129.573 216.286 130.037 216.631 130.251 216.821C130.465 217.012 130.644 217.179 130.787 217.321C131.192 217.75 131.251 218.202 130.965 218.679L128.073 223.893C127.882 224.25 127.608 224.44 127.251 224.464C126.918 224.536 126.596 224.452 126.287 224.214C126.215 224.143 126.043 224 125.769 223.786C125.495 223.571 125.031 223.256 124.376 222.839C123.721 222.423 123.025 222.042 122.287 221.696C121.549 221.351 120.662 221.042 119.626 220.768C118.59 220.494 117.573 220.357 116.573 220.357C114.311 220.357 112.465 220.869 111.037 221.893C109.608 222.917 108.894 224.238 108.894 225.857C108.894 226.476 108.995 227.048 109.198 227.571C109.4 228.095 109.751 228.589 110.251 229.054C110.751 229.518 111.221 229.911 111.662 230.232C112.102 230.554 112.769 230.923 113.662 231.339C114.555 231.756 115.275 232.077 115.823 232.304C116.37 232.53 117.203 232.857 118.323 233.286C119.584 233.762 120.549 234.137 121.215 234.411C121.882 234.685 122.787 235.101 123.93 235.661C125.073 236.22 125.971 236.726 126.626 237.179C127.281 237.631 128.019 238.226 128.84 238.964C129.662 239.702 130.293 240.458 130.733 241.232C131.174 242.006 131.549 242.917 131.858 243.964C132.168 245.012 132.323 246.131 132.323 247.321Z" fill="#1A1A1A"/>
<path d="M183.323 247.321C183.323 250.964 182.138 254.101 179.769 256.732C177.4 259.363 174.323 260.988 170.537 261.607V267.857C170.537 268.19 170.43 268.464 170.215 268.679C170.001 268.893 169.727 269 169.394 269H164.573C164.263 269 163.995 268.887 163.769 268.661C163.543 268.435 163.43 268.167 163.43 267.857V261.607C161.858 261.393 160.34 261.024 158.876 260.5C157.412 259.976 156.203 259.446 155.251 258.911C154.299 258.375 153.418 257.804 152.608 257.196C151.799 256.589 151.245 256.143 150.948 255.857C150.65 255.571 150.442 255.357 150.323 255.214C149.918 254.714 149.894 254.226 150.251 253.75L153.93 248.929C154.096 248.69 154.37 248.548 154.751 248.5C155.108 248.452 155.394 248.56 155.608 248.821L155.68 248.893C158.37 251.25 161.263 252.738 164.358 253.357C165.239 253.548 166.12 253.643 167.001 253.643C168.93 253.643 170.626 253.131 172.09 252.107C173.555 251.083 174.287 249.631 174.287 247.75C174.287 247.083 174.108 246.452 173.751 245.857C173.394 245.262 172.995 244.762 172.555 244.357C172.114 243.952 171.418 243.506 170.465 243.018C169.513 242.53 168.727 242.149 168.108 241.875C167.489 241.601 166.537 241.214 165.251 240.714C164.323 240.333 163.59 240.036 163.055 239.821C162.519 239.607 161.787 239.292 160.858 238.875C159.93 238.458 159.186 238.089 158.626 237.768C158.067 237.446 157.394 237.024 156.608 236.5C155.823 235.976 155.186 235.47 154.698 234.982C154.209 234.494 153.692 233.911 153.144 233.232C152.596 232.554 152.174 231.863 151.876 231.161C151.578 230.458 151.328 229.667 151.126 228.786C150.924 227.905 150.823 226.976 150.823 226C150.823 222.714 151.989 219.833 154.323 217.357C156.656 214.881 159.692 213.286 163.43 212.571V206.143C163.43 205.833 163.543 205.565 163.769 205.339C163.995 205.113 164.263 205 164.573 205H169.394C169.727 205 170.001 205.107 170.215 205.321C170.43 205.536 170.537 205.81 170.537 206.143V212.429C171.894 212.571 173.209 212.845 174.483 213.25C175.757 213.655 176.793 214.054 177.59 214.446C178.388 214.839 179.144 215.286 179.858 215.786C180.573 216.286 181.037 216.631 181.251 216.821C181.465 217.012 181.644 217.179 181.787 217.321C182.192 217.75 182.251 218.202 181.965 218.679L179.073 223.893C178.882 224.25 178.608 224.44 178.251 224.464C177.918 224.536 177.596 224.452 177.287 224.214C177.215 224.143 177.043 224 176.769 223.786C176.495 223.571 176.031 223.256 175.376 222.839C174.721 222.423 174.025 222.042 173.287 221.696C172.549 221.351 171.662 221.042 170.626 220.768C169.59 220.494 168.573 220.357 167.573 220.357C165.311 220.357 163.465 220.869 162.037 221.893C160.608 222.917 159.894 224.238 159.894 225.857C159.894 226.476 159.995 227.048 160.198 227.571C160.4 228.095 160.751 228.589 161.251 229.054C161.751 229.518 162.221 229.911 162.662 230.232C163.102 230.554 163.769 230.923 164.662 231.339C165.555 231.756 166.275 232.077 166.823 232.304C167.37 232.53 168.203 232.857 169.323 233.286C170.584 233.762 171.549 234.137 172.215 234.411C172.882 234.685 173.787 235.101 174.93 235.661C176.073 236.22 176.971 236.726 177.626 237.179C178.281 237.631 179.019 238.226 179.84 238.964C180.662 239.702 181.293 240.458 181.733 241.232C182.174 242.006 182.549 242.917 182.858 243.964C183.168 245.012 183.323 246.131 183.323 247.321Z" fill="#1A1A1A"/>
<line x1="24" y1="281" x2="279" y2="281" stroke="black" stroke-width="2"/>
<path d="M35.4 172.2C34.5333 172.2 33.7833 171.883 33.15 171.25C32.5167 170.617 32.2 169.867 32.2 169V124.2C32.2 123.333 32.5167 122.583 33.15 121.95C33.7833 121.317 34.5333 121 35.4 121C36.2667 121 37.0167 121.317 37.65 121.95L60.05 144.35C60.6833 144.983 61 145.733 61 146.6C61 147.467 60.6833 148.217 60.05 148.85L37.65 171.25C37.0167 171.883 36.2667 172.2 35.4 172.2Z" fill="#1A1A1A"/>
<path d="M132.323 157.321C132.323 160.964 131.138 164.101 128.769 166.732C126.4 169.363 123.323 170.988 119.537 171.607V177.857C119.537 178.19 119.43 178.464 119.215 178.679C119.001 178.893 118.727 179 118.394 179H113.573C113.263 179 112.995 178.887 112.769 178.661C112.543 178.435 112.43 178.167 112.43 177.857V171.607C110.858 171.393 109.34 171.024 107.876 170.5C106.412 169.976 105.203 169.446 104.251 168.911C103.299 168.375 102.418 167.804 101.608 167.196C100.799 166.589 100.245 166.143 99.9475 165.857C99.6499 165.571 99.4416 165.357 99.3225 165.214C98.9178 164.714 98.894 164.226 99.2511 163.75L102.93 158.929C103.096 158.69 103.37 158.548 103.751 158.5C104.108 158.452 104.394 158.56 104.608 158.821L104.68 158.893C107.37 161.25 110.263 162.738 113.358 163.357C114.239 163.548 115.12 163.643 116.001 163.643C117.93 163.643 119.626 163.131 121.09 162.107C122.555 161.083 123.287 159.631 123.287 157.75C123.287 157.083 123.108 156.452 122.751 155.857C122.394 155.262 121.995 154.762 121.555 154.357C121.114 153.952 120.418 153.506 119.465 153.018C118.513 152.53 117.727 152.149 117.108 151.875C116.489 151.601 115.537 151.214 114.251 150.714C113.323 150.333 112.59 150.036 112.055 149.821C111.519 149.607 110.787 149.292 109.858 148.875C108.93 148.458 108.186 148.089 107.626 147.768C107.067 147.446 106.394 147.024 105.608 146.5C104.823 145.976 104.186 145.47 103.698 144.982C103.209 144.494 102.692 143.911 102.144 143.232C101.596 142.554 101.174 141.863 100.876 141.161C100.578 140.458 100.328 139.667 100.126 138.786C99.9237 137.905 99.8225 136.976 99.8225 136C99.8225 132.714 100.989 129.833 103.323 127.357C105.656 124.881 108.692 123.286 112.43 122.571V116.143C112.43 115.833 112.543 115.565 112.769 115.339C112.995 115.113 113.263 115 113.573 115H118.394C118.727 115 119.001 115.107 119.215 115.321C119.43 115.536 119.537 115.81 119.537 116.143V122.429C120.894 122.571 122.209 122.845 123.483 123.25C124.757 123.655 125.793 124.054 126.59 124.446C127.388 124.839 128.144 125.286 128.858 125.786C129.573 126.286 130.037 126.631 130.251 126.821C130.465 127.012 130.644 127.179 130.787 127.321C131.192 127.75 131.251 128.202 130.965 128.679L128.073 133.893C127.882 134.25 127.608 134.44 127.251 134.464C126.918 134.536 126.596 134.452 126.287 134.214C126.215 134.143 126.043 134 125.769 133.786C125.495 133.571 125.031 133.256 124.376 132.839C123.721 132.423 123.025 132.042 122.287 131.696C121.549 131.351 120.662 131.042 119.626 130.768C118.59 130.494 117.573 130.357 116.573 130.357C114.311 130.357 112.465 130.869 111.037 131.893C109.608 132.917 108.894 134.238 108.894 135.857C108.894 136.476 108.995 137.048 109.198 137.571C109.4 138.095 109.751 138.589 110.251 139.054C110.751 139.518 111.221 139.911 111.662 140.232C112.102 140.554 112.769 140.923 113.662 141.339C114.555 141.756 115.275 142.077 115.823 142.304C116.37 142.53 117.203 142.857 118.323 143.286C119.584 143.762 120.549 144.137 121.215 144.411C121.882 144.685 122.787 145.101 123.93 145.661C125.073 146.22 125.971 146.726 126.626 147.179C127.281 147.631 128.019 148.226 128.84 148.964C129.662 149.702 130.293 150.458 130.733 151.232C131.174 152.006 131.549 152.917 131.858 153.964C132.168 155.012 132.323 156.131 132.323 157.321Z" fill="#1A1A1A"/>
<line x1="24" y1="191" x2="279" y2="191" stroke="black" stroke-width="2"/>
</svg>
